<svg xmlns="http://www.w3.org/2000/svg" width="135" height="135" viewBox="0 0 135 135">
    <defs>
        <filter id="hp70fp0yba">
            <feColorMatrix in="SourceGraphic" values="0 0 0 0 1.000000 0 0 0 0 1.000000 0 0 0 0 1.000000 0 0 0 1.000000 0"/>
        </filter>
    </defs>
    <g fill="none" fill-rule="evenodd">
        <circle cx="67.5" cy="67.5" r="67.5" fill="#8BC990"/>
        <g fill-rule="nonzero" filter="url(#hp70fp0yba)" transform="translate(29 29)">
            <path fill="#292562" d="M28.4 23.368c-1.14-1.137-2.902-1.366-4.296-.559-1.394.808-2.072 2.45-1.653 4.005.418 1.556 1.828 2.636 3.439 2.636.944.004 1.85-.375 2.51-1.05.67-.665 1.047-1.571 1.047-2.516 0-.944-.376-1.85-1.046-2.516zM24.428 31.592c-1.412-1.336-3.621-1.336-5.033 0-1.018 1.018-1.323 2.55-.773 3.88.551 1.33 1.85 2.198 3.29 2.198s2.738-.867 3.289-2.198c.55-1.33.246-2.862-.773-3.88zM25.008 41.19c-1.018-1.02-2.549-1.324-3.88-.773-1.33.55-2.198 1.849-2.198 3.289 0 1.44.868 2.738 2.199 3.289 1.33.55 2.861.246 3.88-.773.67-.666 1.046-1.571 1.046-2.516 0-.945-.377-1.85-1.047-2.517zM54.346 49.313c-1.019-1.026-2.557-1.336-3.894-.785-1.338.552-2.21 1.855-2.21 3.302 0 1.446.872 2.75 2.21 3.301 1.337.552 2.875.242 3.894-.785 1.383-1.392 1.383-3.64 0-5.033z"/>
            <path fill="#292561" d="M46.791 46.791L30.923 30.923"/>
            <path fill="#292562" d="M46.791 47.35c-.145-.002-.284-.058-.39-.157L30.532 31.324c-.141-.141-.197-.347-.145-.54.052-.194.203-.345.396-.397.194-.052.4.004.541.145l15.87 15.869c.213.22.213.571 0 .792-.11.1-.254.156-.403.156zM46.133 53.297c-1.407-1.347-3.626-1.347-5.033 0-1.018 1.018-1.323 2.55-.772 3.88.55 1.33 1.849 2.198 3.289 2.198 1.44 0 2.738-.867 3.289-2.198.55-1.33.246-2.862-.773-3.88z"/>
            <path fill="#292561" d="M38.578 50.775L26.95 39.147"/>
            <path fill="#292562" d="M38.578 51.333c-.15 0-.295-.06-.402-.167L26.56 39.538c-.14-.14-.194-.343-.143-.534.052-.19.2-.34.391-.39.19-.051.394.003.534.143l11.628 11.617c.214.22.214.571 0 .792-.103.105-.244.165-.39.167zM36.536 52.717c-1.412-1.336-3.621-1.336-5.033 0-1.019 1.018-1.323 2.55-.773 3.88.551 1.33 1.85 2.198 3.29 2.198s2.738-.868 3.289-2.198c.55-1.33.245-2.862-.773-3.88z"/>
            <path fill="#292561" d="M29.249 50.463L27.262 48.477"/>
            <path fill="#292562" d="M29.249 51.02c-.151 0-.295-.06-.402-.167l-1.986-1.986c-.213-.217-.213-.564 0-.781.104-.106.247-.165.396-.165.149 0 .291.06.396.165l1.986 1.986c.157.16.203.397.118.603-.085.207-.285.343-.508.346zM33.132 70.528c-1.399-1.333-3.606-1.306-4.972.06-1.366 1.366-1.393 3.573-.06 4.972.664.673 1.57 1.052 2.516 1.052.945 0 1.852-.379 2.516-1.052 1.383-1.392 1.383-3.64 0-5.032zM37.116 62.314c-1.39-1.389-3.643-1.389-5.033 0-.672.665-1.05 1.571-1.05 2.517 0 .945.378 1.852 1.05 2.516.665.668 1.57 1.041 2.511 1.038 1.438 0 2.735-.866 3.286-2.194.552-1.328.25-2.857-.764-3.877zM7.187 44.638c-1.018-1.019-2.55-1.324-3.88-.773-1.33.55-2.198 1.85-2.198 3.29s.867 2.737 2.198 3.288c1.33.551 2.862.246 3.88-.772.67-.667 1.046-1.572 1.046-2.517 0-.945-.376-1.85-1.046-2.516z"/>
            <path fill="#292561" d="M9.709 52.148L25.577 68.006"/>
            <path fill="#292562" d="M25.577 68.563c-.146.005-.287-.051-.39-.156L9.318 52.54c-.106-.105-.165-.248-.165-.397 0-.148.06-.291.165-.396.22-.214.572-.214.792 0l15.87 15.869c.213.22.213.571 0 .792-.108.104-.253.16-.403.156zM15.411 40.61c-1.018-1.02-2.55-1.324-3.88-.773-1.33.55-2.198 1.849-2.198 3.289 0 1.44.868 2.738 2.198 3.289 1.33.55 2.862.246 3.88-.773 1.383-1.393 1.383-3.64 0-5.033z"/>
            <path fill="#292561" d="M17.933 48.164L29.561 59.792"/>
            <path fill="#292562" d="M29.561 60.35c-.15 0-.295-.06-.401-.167L17.543 48.555c-.14-.14-.194-.343-.143-.534.05-.19.2-.34.39-.39.19-.052.394.003.534.142L29.952 59.39c.214.221.214.572 0 .793-.103.105-.244.165-.39.167zM58.33 41.1c-1.407-1.348-3.626-1.348-5.033 0-.67.664-1.048 1.568-1.049 2.511 0 1.61 1.08 3.02 2.636 3.44 1.555.417 3.197-.26 4.005-1.654.807-1.394.578-3.156-.559-4.297zM57.75 31.503c-1.138-1.144-2.904-1.38-4.302-.573-1.398.806-2.079 2.452-1.659 4.01.42 1.559 1.836 2.64 3.45 2.634.942.003 1.846-.37 2.511-1.038 1.383-1.393 1.383-3.64 0-5.033zM36.625 19.395c-1.41-1.342-3.623-1.342-5.033 0-1.018 1.018-1.323 2.55-.772 3.88.55 1.33 1.849 2.198 3.289 2.198 1.44 0 2.738-.868 3.289-2.198.55-1.33.246-2.862-.773-3.88z"/>
            <path fill="#292561" d="M39.147 26.95L50.775 38.578"/>
            <path fill="#292562" d="M50.775 39.136c-.15 0-.295-.06-.401-.167L38.757 27.34c-.14-.14-.194-.343-.143-.534.05-.19.2-.34.39-.39.19-.052.394.003.534.142l11.628 11.617c.106.105.165.248.165.397 0 .148-.06.29-.165.396-.102.106-.243.166-.39.167zM46.222 19.975c-1.407-1.347-3.626-1.347-5.033 0-1.018 1.018-1.323 2.55-.772 3.88.55 1.33 1.849 2.198 3.289 2.198 1.44 0 2.738-.867 3.289-2.198.55-1.33.246-2.862-.773-3.88z"/>
            <path fill="#292561" d="M49.224 28.01L49.715 28.501"/>
            <path fill="#292562" d="M49.715 29.014c-.15.004-.294-.052-.402-.156l-.48-.49c-.107-.102-.168-.243-.168-.391 0-.148.06-.29.169-.39.104-.107.247-.166.396-.166.149 0 .291.06.396.165l.48.48c.156.16.202.397.117.603-.085.206-.285.342-.508.345zM49.626 2.154c-1.02-1.027-2.557-1.337-3.895-.785-1.337.551-2.21 1.855-2.21 3.301 0 1.447.873 2.75 2.21 3.302 1.338.551 2.876.241 3.895-.785 1.383-1.393 1.383-3.64 0-5.033zM45.642 10.378c-1.202-1.21-3.091-1.4-4.511-.456-1.42.945-1.974 2.761-1.322 4.337.651 1.576 2.326 2.472 3.998 2.138 1.673-.333 2.876-1.803 2.873-3.508.003-.942-.37-1.846-1.038-2.51zM75.56 28.1c-1.138-1.145-2.903-1.38-4.301-.573-1.399.806-2.08 2.452-1.66 4.01.42 1.558 1.837 2.639 3.45 2.633 1.436-.005 2.729-.872 3.278-2.2.548-1.326.246-2.853-.767-3.87z"/>
            <path fill="#292561" d="M68.006 25.577L52.148 9.709"/>
            <path fill="#292562" d="M68.006 26.135c-.148-.002-.288-.062-.391-.167L51.746 10.11c-.214-.22-.214-.571 0-.792.105-.106.248-.165.396-.165.15 0 .292.06.397.165l15.868 15.869c.213.217.213.564 0 .781-.106.107-.25.167-.401.167zM67.347 32.083c-1.018-1.018-2.55-1.323-3.88-.772-1.33.55-2.198 1.849-2.198 3.289 0 1.44.868 2.738 2.198 3.289 1.33.55 2.862.246 3.88-.773.67-.666 1.047-1.572 1.047-2.516 0-.945-.377-1.85-1.047-2.517z"/>
            <path fill="#292561" d="M59.792 29.561L48.164 17.933"/>
            <path fill="#292562" d="M59.792 30.13c-.15 0-.295-.06-.402-.167l-11.617-11.64c-.14-.139-.194-.342-.142-.533.05-.19.2-.34.39-.39.19-.051.394.003.534.143L60.183 29.16c.105.104.165.247.165.396 0 .149-.06.291-.165.396-.1.11-.242.175-.39.178z"/>
            <path fill="#292561" d="M50.463 29.249L48.477 27.262"/>
            <path fill="#292562" d="M50.463 29.807c-.148.002-.29-.06-.39-.168l-1.987-1.986c-.106-.105-.165-.247-.165-.396 0-.149.06-.292.165-.396.217-.213.564-.213.781 0l1.986 1.986c.106.105.166.247.166.396 0 .149-.06.292-.166.396-.1.109-.242.17-.39.168z"/>
        </g>
    </g>
</svg>
